<svg id="visual" viewBox="0 0 1400 500" width="1400" height="500" xmlns="http://www.w3.org/2000/svg" xmlns:xlink="http://www.w3.org/1999/xlink" version="1.1"><g><g transform="translate(693 244)"><path d="M0 -84.6L73.3 -42.3L73.3 42.3L0 84.6L-73.3 42.3L-73.3 -42.3Z" stroke="#d67d3e" fill="none" stroke-width="16"></path></g><g transform="translate(398 204)"><path d="M0 -50L43.3 -25L43.3 25L0 50L-43.3 25L-43.3 -25Z" stroke="#d67d3e" fill="none" stroke-width="16"></path></g><g transform="translate(1361 193)"><path d="M0 -41L35.5 -20.5L35.5 20.5L0 41L-35.5 20.5L-35.5 -20.5Z" stroke="#d67d3e" fill="none" stroke-width="16"></path></g><g transform="translate(331 468)"><path d="M0 -81L70.1 -40.5L70.1 40.5L0 81L-70.1 40.5L-70.1 -40.5Z" stroke="#d67d3e" fill="none" stroke-width="16"></path></g><g transform="translate(918 19)"><path d="M0 -45L39 -22.5L39 22.5L0 45L-39 22.5L-39 -22.5Z" stroke="#d67d3e" fill="none" stroke-width="16"></path></g><g transform="translate(236 64)"><path d="M0 -43L37.2 -21.5L37.2 21.5L0 43L-37.2 21.5L-37.2 -21.5Z" stroke="#d67d3e" fill="none" stroke-width="16"></path></g></g></svg>