<svg id="visual" viewBox="0 0 900 600" width="900" height="600" xmlns="http://www.w3.org/2000/svg" xmlns:xlink="http://www.w3.org/1999/xlink" version="1.1"><g><g transform="translate(267 221)"><path d="M0 -74.3L64.4 -37.2L64.4 37.2L0 74.3L-64.4 37.2L-64.4 -37.2Z" fill="none" stroke="#d67d3e" stroke-width="16"></path></g><g transform="translate(478 580)"><path d="M0 -31L26.8 -15.5L26.8 15.5L0 31L-26.8 15.5L-26.8 -15.5Z" fill="none" stroke="#d67d3e" stroke-width="16"></path></g><g transform="translate(699 300)"><path d="M0 -38L32.9 -19L32.9 19L0 38L-32.9 19L-32.9 -19Z" fill="none" stroke="#d67d3e" stroke-width="16"></path></g><g transform="translate(876 6)"><path d="M0 -44L38.1 -22L38.1 22L0 44L-38.1 22L-38.1 -22Z" fill="none" stroke="#d67d3e" stroke-width="16"></path></g><g transform="translate(559 54)"><path d="M0 -36L31.2 -18L31.2 18L0 36L-31.2 18L-31.2 -18Z" fill="none" stroke="#d67d3e" stroke-width="16"></path></g><g transform="translate(28 338)"><path d="M0 -33L28.6 -16.5L28.6 16.5L0 33L-28.6 16.5L-28.6 -16.5Z" stroke="#d67d3e" fill="none" stroke-width="16"></path></g></g></svg>