<svg xmlns="http://www.w3.org/2000/svg" version="1.1" xmlns:xlink="http://www.w3.org/1999/xlink" xmlns:svgjs="http://svgjs.dev/svgjs" width="580" height="320" preserveAspectRatio="none" viewBox="0 0 580 320"><g mask="url(&quot;#SvgjsMask1048&quot;)" fill="none"><path d="M160.967,226.781C171.442,226.61,177.989,216.591,182.933,207.355C187.519,198.788,190.227,188.983,185.839,180.313C181.036,170.823,171.603,163.899,160.967,163.951C150.406,164.002,141.43,171.207,136.509,180.552C131.92,189.267,133.117,199.386,137.723,208.092C142.706,217.51,150.313,226.955,160.967,226.781" fill="rgba(17, 29, 94, 1)" class="triangle-float1"></path><path d="M400.086,248.195C424.352,248.244,447.975,238.878,461.181,218.52C475.652,196.212,480.752,167.38,467.446,144.357C454.149,121.349,426.636,111.689,400.086,112.811C375.506,113.85,354.183,128.338,341.916,149.663C329.686,170.924,326.949,197.151,339.419,218.273C351.705,239.084,375.919,248.146,400.086,248.195" fill="rgba(17, 29, 94, 1)" class="triangle-float2"></path><path d="M139.618,255.16C158.03,255.704,171.043,239.204,180.004,223.111C188.66,207.565,194.353,188.731,185.05,173.564C176.034,158.865,156.862,157.239,139.618,157.271C122.452,157.303,103.017,158.841,94.477,173.732C85.963,188.578,94.864,205.874,103.162,220.842C111.834,236.486,121.739,254.632,139.618,255.16" fill="rgba(17, 29, 94, 1)" class="triangle-float1"></path><path d="M183.314,131.676C194.336,130.742,202.854,122.812,208.043,113.043C212.875,103.945,213.711,93.112,208.524,84.211C203.371,75.369,193.548,70.568,183.314,70.609C173.154,70.65,164.289,76.095,158.451,84.411C151.353,94.521,144.323,107.025,150.074,117.958C156.055,129.328,170.513,132.761,183.314,131.676" fill="rgba(17, 29, 94, 1)" class="triangle-float2"></path><path d="M36.832,296.876C46.496,297.085,57.564,297.944,62.982,289.939C68.845,281.277,67.003,269.484,61.311,260.708C56.087,252.653,46.432,249.496,36.832,249.619C27.48,249.739,18.334,253.366,13.415,261.321C8.24,269.689,7.159,280.631,12.571,288.848C17.593,296.473,27.704,296.678,36.832,296.876" fill="rgba(17, 29, 94, 1)" class="triangle-float2"></path></g><defs><mask id="SvgjsMask1048"><rect width="580" height="320" fill="#ffffff"></rect></mask><style>
                @keyframes float1 {
                    0%{transform: translate(0, 0)}
                    50%{transform: translate(-10px, 0)}
                    100%{transform: translate(0, 0)}
                }

                .triangle-float1 {
                    animation: float1 5s infinite;
                }

                @keyframes float2 {
                    0%{transform: translate(0, 0)}
                    50%{transform: translate(-5px, -5px)}
                    100%{transform: translate(0, 0)}
                }

                .triangle-float2 {
                    animation: float2 4s infinite;
                }

                @keyframes float3 {
                    0%{transform: translate(0, 0)}
                    50%{transform: translate(0, -10px)}
                    100%{transform: translate(0, 0)}
                }

                .triangle-float3 {
                    animation: float3 6s infinite;
                }
            </style></defs></svg>