<svg xmlns="http://www.w3.org/2000/svg" version="1.1" xmlns:xlink="http://www.w3.org/1999/xlink" xmlns:svgjs="http://svgjs.dev/svgjs" width="360" height="800" preserveAspectRatio="none" viewBox="0 0 360 800">
    <g mask="url(&quot;#SvgjsMask1018&quot;)" fill="none">
        <path d="M15 800L815 0L965 0L165 800z" fill="url(&quot;#SvgjsLinearGradient1019&quot;)"></path>
        <path d="M138.8 800L938.8 0L991.3 0L191.3 800z" fill="url(&quot;#SvgjsLinearGradient1019&quot;)"></path>
        <path d="M355 800L-445 0L-529 0L271 800z" fill="url(&quot;#SvgjsLinearGradient1020&quot;)"></path>
        <path d="M234.2 800L-565.8 0L-586.8 0L213.2 800z" fill="url(&quot;#SvgjsLinearGradient1020&quot;)"></path>
        <path d="M14.293305815075485 800L360 454.2933058150755L360 800z" fill="url(&quot;#SvgjsLinearGradient1019&quot;)"></path>
        <path d="M0 800L345.7066941849245 800L 0 454.2933058150755z" fill="url(&quot;#SvgjsLinearGradient1020&quot;)"></path>
    </g>
    <defs>
        <mask id="SvgjsMask1018">
            <rect width="360" height="800" fill="#ffffff"></rect>
        </mask>
        <linearGradient x1="0%" y1="100%" x2="100%" y2="0%" id="SvgjsLinearGradient1019">
            <stop stop-color="rgba(174, 140, 86, 0.4)" offset="0"></stop>
            <stop stop-opacity="0" stop-color="rgba(174, 140, 86, 0.4)" offset="0.66"></stop>
        </linearGradient>
        <linearGradient x1="100%" y1="100%" x2="0%" y2="0%" id="SvgjsLinearGradient1020">
            <stop stop-color="rgba(174, 140, 86, 0.4)" offset="0"></stop>
            <stop stop-opacity="0" stop-color="rgba(174, 140, 86, 0.4)" offset="0.66"></stop>
        </linearGradient>
    </defs>
</svg>
<svg id="visual" viewBox="0 0 900 600" width="900" height="600" xmlns="http://www.w3.org/2000/svg" xmlns:xlink="http://www.w3.org/1999/xlink" version="1.1"><g><g transform="translate(374 534)"><path d="M0 -68.6L53.6 -42.7L66.8 15.3L29.7 61.8L-29.7 61.8L-66.8 15.3L-53.6 -42.7Z" fill="none" stroke="#d67d3eab" stroke-width="5"></path></g><g transform="translate(843 350)"><path d="M0 -44L34.4 -27.4L42.9 9.8L19.1 39.6L-19.1 39.6L-42.9 9.8L-34.4 -27.4Z" fill="none" stroke="#d67d3eab" stroke-width="5"></path></g><g transform="translate(338 283)"><path d="M0 -62L48.5 -38.7L60.4 13.8L26.9 55.9L-26.9 55.9L-60.4 13.8L-48.5 -38.7Z" stroke="#d67d3eab" fill="none" stroke-width="5"></path></g><g transform="translate(117 57)"><path d="M0 -58L45.3 -36.2L56.5 12.9L25.2 52.3L-25.2 52.3L-56.5 12.9L-45.3 -36.2Z" stroke="#d67d3eab" fill="none" stroke-width="5"></path></g><g transform="translate(631 434)"><path d="M0 -45L35.2 -28.1L43.9 10L19.5 40.5L-19.5 40.5L-43.9 10L-35.2 -28.1Z" stroke="#d67d3eab" fill="none" stroke-width="5"></path></g></g></svg>