<svg id="visual" viewBox="0 0 900 600" width="900" height="600" xmlns="http://www.w3.org/2000/svg" xmlns:xlink="http://www.w3.org/1999/xlink" version="1.1"><g><g transform="translate(374 534)"><path d="M0 -68.6L53.6 -42.7L66.8 15.3L29.7 61.8L-29.7 61.8L-66.8 15.3L-53.6 -42.7Z" fill="none" stroke="#f9e4d4" stroke-width="5"></path></g><g transform="translate(843 350)"><path d="M0 -44L34.4 -27.4L42.9 9.8L19.1 39.6L-19.1 39.6L-42.9 9.8L-34.4 -27.4Z" fill="none" stroke="#f9e4d4" stroke-width="5"></path></g><g transform="translate(338 283)"><path d="M0 -62L48.5 -38.7L60.4 13.8L26.9 55.9L-26.9 55.9L-60.4 13.8L-48.5 -38.7Z" stroke="#f9e4d4" fill="none" stroke-width="5"></path></g><g transform="translate(117 57)"><path d="M0 -58L45.3 -36.2L56.5 12.9L25.2 52.3L-25.2 52.3L-56.5 12.9L-45.3 -36.2Z" stroke="#f9e4d4" fill="none" stroke-width="5"></path></g><g transform="translate(631 434)"><path d="M0 -45L35.2 -28.1L43.9 10L19.5 40.5L-19.5 40.5L-43.9 10L-35.2 -28.1Z" stroke="#f9e4d4" fill="none" stroke-width="5"></path></g></g></svg>