<svg id="visual" viewBox="0 0 900 600" width="900" height="600" xmlns="http://www.w3.org/2000/svg" xmlns:xlink="http://www.w3.org/1999/xlink" version="1.1"><g><g transform="translate(686 401)"><path d="M0 -74.3L64.4 -37.2L64.4 37.2L0 74.3L-64.4 37.2L-64.4 -37.2Z" fill="none" stroke="#f9e4d4" stroke-width="16"></path></g><g transform="translate(296 351)"><path d="M0 -66L57.2 -33L57.2 33L0 66L-57.2 33L-57.2 -33Z" fill="none" stroke="#f9e4d4" stroke-width="16"></path></g><g transform="translate(437 33)"><path d="M0 -27L23.4 -13.5L23.4 13.5L0 27L-23.4 13.5L-23.4 -13.5Z" fill="none" stroke="#f9e4d4" stroke-width="16"></path></g><g transform="translate(89 125)"><path d="M0 -42L36.4 -21L36.4 21L0 42L-36.4 21L-36.4 -21Z" fill="none" stroke="#f9e4d4" stroke-width="16"></path></g><g transform="translate(765 66)"><path d="M0 -34L29.4 -17L29.4 17L0 34L-29.4 17L-29.4 -17Z" fill="none" stroke="#f9e4d4" stroke-width="16"></path></g></g></svg>